<svg width="260" height="32" viewBox="0 0 260 32" fill="none" xmlns="http://www.w3.org/2000/svg">
<path d="M0.104492 9.60204V19.204H12.1069H24.1094V22.2362V25.2684H12.1069H0.104492V28.5533V31.8381H15.2655H30.4264V22.2362V12.6342H18.424H6.42156V9.60204V6.56985H18.424H30.4264V3.28497V8.96454e-05H15.2655H0.104492V9.60204Z" fill="black"/>
<path d="M34.7222 3.28497V6.56985H44.88H55.0631L44.88 16.753L34.7222 26.9108L37.0469 29.2608L39.3968 31.5855L49.5547 21.4276L59.7378 11.2445V21.5539V31.8381H63.0227H66.3075V15.9191V8.96454e-05H50.5148H34.7222V3.28497Z" fill="#0190F9"/>
<path d="M71.1084 15.9191V31.8381H74.2669H77.4255V25.5211V19.204H86.2694H95.1133V25.5211V31.8381H98.2718H101.43V15.9191V8.96454e-05H86.2694H71.1084V15.9191ZM95.1133 9.60204V12.6342H86.2694H77.4255V9.60204V6.56985H86.2694H95.1133V9.60204Z" fill="black"/>
<path d="M106.231 15.9191V31.8381H109.39H112.549V25.5211V19.204L118.613 19.2545L124.703 19.3303L127.229 25.3947C128.619 28.7301 129.832 31.5349 129.958 31.6613C130.059 31.7623 131.752 31.8129 133.723 31.7876L137.286 31.7118L134.658 25.5211L132.03 19.3303L134.279 19.2545L136.553 19.1787V9.60204V8.96454e-05H121.392H106.231V15.9191ZM130.236 9.60204V12.6342H121.392H112.549V9.60204V6.56985H121.392H130.236V9.60204Z" fill="black"/>
<path d="M141.354 3.28497V6.56985H151.512H161.695L151.512 16.753L141.354 26.9108L143.679 29.2608L146.029 31.5855L156.186 21.4276L166.37 11.2445V21.5539V31.8381H169.654H172.939V15.9191V8.96454e-05H157.147H141.354V3.28497Z" fill="#0190F9"/>
<path d="M193.66 15.9191V31.8381H208.821H223.982V15.9191V8.96454e-05H220.823H217.665V12.6342V25.2684H208.821H199.977V12.6342V8.96454e-05H196.818H193.66V15.9191Z" fill="black"/>
<path d="M228.783 15.9191V31.8381H231.941H235.1V25.5211V19.204H247.102H259.105V9.60204V8.96454e-05H243.944H228.783V15.9191ZM252.788 9.60204V12.6342H243.944H235.1V9.60204V6.56985H243.944H252.788V9.60204Z" fill="black"/>
</svg>
