<svg width="880" height="501" viewBox="0 0 880 501" fill="none" xmlns="http://www.w3.org/2000/svg">
<path d="M874 1L851 18L878 27L874 1Z" fill="black" stroke="black"/>
<path d="M865.896 12C865.896 12 861.796 12.9541 857.396 31.5C850.396 61 877.438 71 878.938 87.5C880.438 104 874.85 136.444 841.438 141.5C808.396 146.5 774.772 123.5 739.939 118C705.939 105.5 727.738 81.6 746.938 80C766.138 78.4 779.439 103 776.938 123.5C774.01 147.508 741.996 152.9 698.396 146.5C654.796 140.1 562.896 165 562.896 213.5" stroke="black" stroke-linecap="round" stroke-dasharray="16 16"/>
<path d="M451.646 217.634L453.552 357.234L692.221 353.975L690.315 214.375L451.646 217.634Z" stroke="black" stroke-width="2.13869"/>
<path opacity="0.2" d="M451.646 217.634L453.552 357.234L692.221 353.975L690.315 214.375L451.646 217.634Z" fill="#FDFBF5" stroke="black" stroke-width="2.13869"/>
<path opacity="0.2" d="M611.518 215.452L613.424 355.056L692.21 353.98L690.304 214.376L611.518 215.452Z" fill="black" stroke="black" stroke-width="2.13869"/>
<mask id="path-6-inside-1_34_2" fill="white">
<path d="M687.601 349.6C681.462 338.98 675.372 328.327 669.346 317.635L651.346 285.504L633.57 253.229C627.672 242.452 621.837 231.635 616.053 220.786C622.194 231.403 628.284 242.056 634.31 252.749L652.305 284.881L670.08 317.156C675.981 327.936 681.815 338.752 687.601 349.6Z"/>
</mask>
<path d="M687.601 349.6L689.488 348.594L685.75 350.671L687.601 349.6ZM669.346 317.635L667.483 318.684L667.481 318.68L669.346 317.635ZM651.346 285.504L649.481 286.549L649.477 286.542L649.473 286.535L651.346 285.504ZM633.57 253.229L631.696 254.261L631.694 254.256L633.57 253.229ZM616.053 220.786L614.166 221.792L617.905 219.715L616.053 220.786ZM634.31 252.749L636.173 251.699L636.176 251.704L634.31 252.749ZM652.305 284.881L654.171 283.836L654.175 283.843L654.179 283.849L652.305 284.881ZM670.08 317.156L671.953 316.124L671.956 316.129L670.08 317.156ZM685.75 350.671C679.607 340.044 673.513 329.385 667.483 318.684L671.21 316.585C677.231 327.27 683.317 337.915 689.453 348.53L685.75 350.671ZM667.481 318.68L649.481 286.549L653.212 284.458L671.212 316.589L667.481 318.68ZM649.473 286.535L631.696 254.261L635.443 252.197L653.22 284.472L649.473 286.535ZM631.694 254.256C625.792 243.471 619.953 232.647 614.166 221.792L617.941 219.78C623.721 230.623 629.552 241.433 635.446 252.202L631.694 254.256ZM617.905 219.715C624.049 230.339 630.143 240.998 636.173 251.699L632.446 253.799C626.425 243.113 620.339 232.468 614.202 221.856L617.905 219.715ZM636.176 251.704L654.171 283.836L650.439 285.926L632.444 253.794L636.176 251.704ZM654.179 283.849L671.953 316.124L668.207 318.188L650.432 285.913L654.179 283.849ZM671.956 316.129C677.861 326.917 683.699 337.739 689.488 348.594L685.714 350.607C679.931 339.764 674.101 328.956 668.204 318.183L671.956 316.129Z" fill="black" mask="url(#path-6-inside-1_34_2)"/>
<mask id="path-8-inside-2_34_2" fill="white">
<path d="M685.829 219.835C680.343 230.837 674.807 241.81 669.206 252.743L652.318 285.492L635.207 318.105C629.473 328.957 623.677 339.771 617.83 350.555C623.314 339.551 628.852 328.577 634.453 317.646L651.339 284.897L668.453 252.287C674.186 241.432 679.982 230.618 685.829 219.835Z"/>
</mask>
<path d="M685.829 219.835L683.949 218.815L687.743 220.789L685.829 219.835ZM669.206 252.743L671.109 253.718L671.107 253.724L669.206 252.743ZM652.318 285.492L654.219 286.473L654.216 286.479L654.212 286.486L652.318 285.492ZM635.207 318.105L637.101 319.098L637.098 319.104L635.207 318.105ZM617.83 350.555L619.71 351.574L615.916 349.601L617.83 350.555ZM634.453 317.646L632.55 316.671L632.552 316.666L634.453 317.646ZM651.339 284.897L649.438 283.917L649.441 283.91L649.445 283.904L651.339 284.897ZM668.453 252.287L666.559 251.293L666.562 251.288L668.453 252.287ZM687.743 220.789C682.254 231.797 676.714 242.777 671.109 253.718L667.302 251.768C672.899 240.843 678.432 229.877 683.915 218.88L687.743 220.789ZM671.107 253.724L654.219 286.473L650.417 284.512L667.305 251.763L671.107 253.724ZM654.212 286.486L637.101 319.098L633.313 317.111L650.424 284.499L654.212 286.486ZM637.098 319.104C631.36 329.964 625.56 340.785 619.71 351.574L615.95 349.535C621.793 338.758 627.586 327.951 633.316 317.105L637.098 319.104ZM615.916 349.601C621.403 338.591 626.944 327.61 632.55 316.671L636.356 318.621C630.759 329.545 625.225 340.511 619.744 351.509L615.916 349.601ZM632.552 316.666L649.438 283.917L653.24 285.878L636.354 318.626L632.552 316.666ZM649.445 283.904L666.559 251.293L670.346 253.281L653.232 285.891L649.445 283.904ZM666.562 251.288C672.299 240.426 678.099 229.604 683.949 218.815L687.709 220.854C681.866 231.631 676.073 242.439 670.344 253.286L666.562 251.288Z" fill="black" mask="url(#path-8-inside-2_34_2)"/>
<mask id="path-10-inside-3_34_2" fill="white">
<path d="M489.26 328.221L490.579 328.202L490.835 346.818L489.516 346.837L489.26 328.221Z"/>
</mask>
<path d="M489.26 328.221L490.579 328.202L490.835 346.818L489.516 346.837L489.26 328.221Z" fill="#263238"/>
<path d="M490.579 328.202L490.55 326.064L492.688 326.034L492.718 328.173L490.579 328.202ZM489.26 328.221L487.121 328.25L487.092 326.111L489.23 326.082L489.26 328.221ZM489.516 346.837L489.545 348.975L487.406 349.005L487.377 346.866L489.516 346.837ZM490.835 346.818L492.974 346.789L493.003 348.928L490.864 348.957L490.835 346.818ZM490.609 330.341L489.289 330.359L489.23 326.082L490.55 326.064L490.609 330.341ZM491.398 328.191L491.654 346.807L487.377 346.866L487.121 328.25L491.398 328.191ZM489.486 344.698L490.806 344.68L490.864 348.957L489.545 348.975L489.486 344.698ZM488.697 346.848L488.441 328.232L492.718 328.173L492.974 346.789L488.697 346.848Z" fill="black" mask="url(#path-10-inside-3_34_2)"/>
<mask id="path-12-inside-4_34_2" fill="white">
<path d="M486.108 328.21L487.428 328.192L487.681 346.806L486.362 346.824L486.108 328.21Z"/>
</mask>
<path d="M486.108 328.21L487.428 328.192L487.681 346.806L486.362 346.824L486.108 328.21Z" fill="#263238"/>
<path d="M487.428 328.192L487.399 326.053L489.537 326.024L489.566 328.163L487.428 328.192ZM486.108 328.21L483.97 328.239L483.941 326.1L486.079 326.071L486.108 328.21ZM486.362 346.824L486.391 348.963L484.253 348.992L484.224 346.854L486.362 346.824ZM487.681 346.806L489.82 346.777L489.849 348.916L487.71 348.945L487.681 346.806ZM487.457 330.33L486.137 330.348L486.079 326.071L487.399 326.053L487.457 330.33ZM488.247 328.18L488.5 346.795L484.224 346.854L483.97 328.239L488.247 328.18ZM486.333 344.686L487.652 344.668L487.71 348.945L486.391 348.963L486.333 344.686ZM485.543 346.836L485.289 328.221L489.566 328.163L489.82 346.777L485.543 346.836Z" fill="black" mask="url(#path-12-inside-4_34_2)"/>
<mask id="path-14-inside-5_34_2" fill="white">
<path d="M482.91 328.283L484.229 328.265L484.485 346.881L483.165 346.899L482.91 328.283Z"/>
</mask>
<path d="M482.91 328.283L484.229 328.265L484.485 346.881L483.165 346.899L482.91 328.283Z" fill="#263238"/>
<path d="M484.229 328.265L484.2 326.126L486.338 326.097L486.368 328.235L484.229 328.265ZM482.91 328.283L480.771 328.312L480.742 326.174L482.88 326.144L482.91 328.283ZM483.165 346.899L483.195 349.037L481.056 349.067L481.027 346.928L483.165 346.899ZM484.485 346.881L486.624 346.851L486.653 348.99L484.514 349.019L484.485 346.881ZM484.258 330.403L482.939 330.421L482.88 326.144L484.2 326.126L484.258 330.403ZM485.048 328.253L485.304 346.869L481.027 346.928L480.771 328.312L485.048 328.253ZM483.136 344.76L484.456 344.742L484.514 349.019L483.195 349.037L483.136 344.76ZM482.346 346.91L482.09 328.294L486.368 328.235L486.624 346.851L482.346 346.91Z" fill="black" mask="url(#path-14-inside-5_34_2)"/>
<mask id="path-16-inside-6_34_2" fill="white">
<path d="M479.728 328.302L481.048 328.284L481.304 346.9L479.984 346.918L479.728 328.302Z"/>
</mask>
<path d="M479.728 328.302L481.048 328.284L481.304 346.9L479.984 346.918L479.728 328.302Z" fill="#263238"/>
<path d="M481.048 328.284L481.018 326.146L483.157 326.116L483.186 328.255L481.048 328.284ZM479.728 328.302L477.59 328.332L477.56 326.193L479.699 326.164L479.728 328.302ZM479.984 346.918L480.014 349.057L477.875 349.086L477.846 346.948L479.984 346.918ZM481.304 346.9L483.442 346.871L483.472 349.009L481.333 349.039L481.304 346.9ZM481.077 330.423L479.758 330.441L479.699 326.164L481.018 326.146L481.077 330.423ZM481.867 328.273L482.123 346.889L477.846 346.948L477.59 328.332L481.867 328.273ZM479.955 344.78L481.274 344.762L481.333 349.039L480.014 349.057L479.955 344.78ZM479.165 346.93L478.909 328.313L483.186 328.255L483.442 346.871L479.165 346.93Z" fill="black" mask="url(#path-16-inside-6_34_2)"/>
<mask id="path-18-inside-7_34_2" fill="white">
<path d="M476.604 328.341L477.923 328.323L478.177 346.938L476.858 346.956L476.604 328.341Z"/>
</mask>
<path d="M476.604 328.341L477.923 328.323L478.177 346.938L476.858 346.956L476.604 328.341Z" fill="#263238"/>
<path d="M477.923 328.323L477.894 326.184L480.033 326.155L480.062 328.294L477.923 328.323ZM476.604 328.341L474.466 328.37L474.436 326.231L476.575 326.202L476.604 328.341ZM476.858 346.956L476.887 349.094L474.748 349.123L474.719 346.985L476.858 346.956ZM478.177 346.938L480.315 346.908L480.345 349.047L478.206 349.076L478.177 346.938ZM477.952 330.461L476.633 330.479L476.575 326.202L477.894 326.184L477.952 330.461ZM478.742 328.312L478.996 346.926L474.719 346.985L474.466 328.37L478.742 328.312ZM476.828 344.817L478.148 344.799L478.206 349.076L476.887 349.094L476.828 344.817ZM476.039 346.967L475.785 328.352L480.062 328.294L480.315 346.908L476.039 346.967Z" fill="black" mask="url(#path-18-inside-7_34_2)"/>
<mask id="path-20-inside-8_34_2" fill="white">
<path d="M473.436 328.384L474.755 328.366L475.009 346.981L473.69 346.999L473.436 328.384Z"/>
</mask>
<path d="M473.436 328.384L474.755 328.366L475.009 346.981L473.69 346.999L473.436 328.384Z" fill="#263238"/>
<path d="M474.755 328.366L474.726 326.228L476.865 326.199L476.894 328.337L474.755 328.366ZM473.436 328.384L471.298 328.413L471.268 326.275L473.407 326.246L473.436 328.384ZM473.69 346.999L473.719 349.138L471.58 349.167L471.551 347.028L473.69 346.999ZM475.009 346.981L477.147 346.952L477.177 349.09L475.038 349.12L475.009 346.981ZM474.785 330.505L473.465 330.523L473.407 326.246L474.726 326.228L474.785 330.505ZM475.574 328.355L475.828 346.97L471.551 347.028L471.298 328.413L475.574 328.355ZM473.66 344.861L474.98 344.843L475.038 349.12L473.719 349.138L473.66 344.861ZM472.871 347.01L472.617 328.395L476.894 328.337L477.147 346.952L472.871 347.01Z" fill="black" mask="url(#path-20-inside-8_34_2)"/>
<mask id="path-22-inside-9_34_2" fill="white">
<path d="M470.24 328.455L471.56 328.437L471.816 347.053L470.496 347.071L470.24 328.455Z"/>
</mask>
<path d="M470.24 328.455L471.56 328.437L471.816 347.053L470.496 347.071L470.24 328.455Z" fill="#263238"/>
<path d="M471.56 328.437L471.53 326.299L473.669 326.269L473.698 328.408L471.56 328.437ZM470.24 328.455L468.102 328.485L468.072 326.346L470.211 326.317L470.24 328.455ZM470.496 347.071L470.525 349.21L468.387 349.239L468.357 347.101L470.496 347.071ZM471.816 347.053L473.954 347.024L473.983 349.162L471.845 349.192L471.816 347.053ZM471.589 330.576L470.269 330.594L470.211 326.317L471.53 326.299L471.589 330.576ZM472.379 328.426L472.635 347.042L468.357 347.101L468.102 328.485L472.379 328.426ZM470.467 344.933L471.786 344.915L471.845 349.192L470.525 349.21L470.467 344.933ZM469.677 347.083L469.421 328.467L473.698 328.408L473.954 347.024L469.677 347.083Z" fill="black" mask="url(#path-22-inside-9_34_2)"/>
<mask id="path-24-inside-10_34_2" fill="white">
<path d="M467.086 328.478L468.406 328.46L468.658 347.076L467.338 347.094L467.086 328.478Z"/>
</mask>
<path d="M467.086 328.478L468.406 328.46L468.658 347.076L467.338 347.094L467.086 328.478Z" fill="#263238"/>
<path d="M468.406 328.46L468.377 326.322L470.515 326.293L470.544 328.431L468.406 328.46ZM467.086 328.478L464.948 328.507L464.919 326.369L467.057 326.34L467.086 328.478ZM467.338 347.094L467.367 349.232L465.229 349.261L465.2 347.123L467.338 347.094ZM468.658 347.076L470.796 347.047L470.825 349.185L468.687 349.214L468.658 347.076ZM468.435 330.599L467.115 330.617L467.057 326.34L468.377 326.322L468.435 330.599ZM469.225 328.449L469.477 347.065L465.2 347.123L464.948 328.507L469.225 328.449ZM467.309 344.955L468.629 344.937L468.687 349.214L467.367 349.232L467.309 344.955ZM466.519 347.105L466.267 328.489L470.544 328.431L470.796 347.047L466.519 347.105Z" fill="black" mask="url(#path-24-inside-10_34_2)"/>
<mask id="path-26-inside-11_34_2" fill="white">
<path d="M463.904 328.543L465.223 328.525L465.479 347.141L464.16 347.159L463.904 328.543Z"/>
</mask>
<path d="M463.904 328.543L465.223 328.525L465.479 347.141L464.16 347.159L463.904 328.543Z" fill="#263238"/>
<path d="M465.223 328.525L465.194 326.386L467.332 326.357L467.362 328.495L465.223 328.525ZM463.904 328.543L461.765 328.572L461.736 326.434L463.874 326.404L463.904 328.543ZM464.16 347.159L464.189 349.297L462.05 349.327L462.021 347.188L464.16 347.159ZM465.479 347.141L467.618 347.111L467.647 349.25L465.509 349.279L465.479 347.141ZM465.253 330.663L463.933 330.681L463.874 326.404L465.194 326.386L465.253 330.663ZM466.042 328.513L466.298 347.129L462.021 347.188L461.765 328.572L466.042 328.513ZM464.13 345.02L465.45 345.002L465.509 349.279L464.189 349.297L464.13 345.02ZM463.341 347.17L463.085 328.554L467.362 328.495L467.618 347.111L463.341 347.17Z" fill="black" mask="url(#path-26-inside-11_34_2)"/>
<path d="M508.322 334.816C508.933 333.463 509.262 331.533 509.302 328.984L499.549 329.117C499.659 331.657 500.04 333.578 500.689 334.915C501.39 336.361 502.383 337.101 503.795 337.267L504.536 337.354L505.28 337.246C506.69 337.042 507.661 336.277 508.322 334.816Z" fill="#263238" stroke="black" stroke-width="2.13869"/>
<path d="M524.349 336.137L525.339 336.123L520.275 329.55L515.401 336.259L516.378 336.245L517.447 336.231L517.462 337.3L517.574 345.344L523.404 345.264L523.294 337.221L523.28 336.152L524.349 336.137Z" fill="#263238" stroke="black" stroke-width="2.13869"/>
<path opacity="0.1" d="M453.391 347.626L453.522 357.247L611.246 355.082L610.824 324.237L453.391 347.626Z" fill="black" stroke="black" stroke-width="2.13869"/>
<path d="M690.876 214.24L712.418 192.653L634.549 193.717L613.006 215.304L690.876 214.24Z" stroke="black" stroke-width="2.13869"/>
<path opacity="0.2" d="M690.876 214.24L712.418 192.653L634.549 193.717L613.006 215.304L690.876 214.24Z" fill="black" stroke="black" stroke-width="2.13869"/>
<path d="M506.693 195.465L428.824 196.529L450.946 217.52L528.817 216.455L506.693 195.465Z" stroke="black" stroke-width="2.13869"/>
<path d="M25.792 242.72C23.36 242.72 21.1627 243.147 19.2 244C17.2373 244.811 15.5733 246.027 14.208 247.648C12.8427 249.227 11.7973 251.168 11.072 253.472C10.3467 255.733 9.984 258.293 9.984 261.152C9.984 264.907 10.56 268.171 11.712 270.944C12.9067 273.717 14.656 275.851 16.96 277.344C19.3067 278.837 22.2293 279.584 25.728 279.584C27.7333 279.584 29.632 279.413 31.424 279.072C33.216 278.731 34.9653 278.304 36.672 277.792V282.784C34.9653 283.424 33.1947 283.893 31.36 284.192C29.568 284.491 27.4133 284.64 24.896 284.64C20.2453 284.64 16.3627 283.68 13.248 281.76C10.1333 279.84 7.78667 277.109 6.208 273.568C4.672 270.027 3.904 265.867 3.904 261.088C3.904 257.632 4.37333 254.475 5.312 251.616C6.29333 248.757 7.70133 246.283 9.536 244.192C11.4133 242.101 13.7173 240.501 16.448 239.392C19.1787 238.24 22.3147 237.664 25.856 237.664C28.2027 237.664 30.464 237.899 32.64 238.368C34.816 238.837 36.7573 239.499 38.464 240.352L36.16 245.216C34.752 244.576 33.1733 244 31.424 243.488C29.7173 242.976 27.84 242.72 25.792 242.72ZM59.1255 249.056C62.0695 249.056 64.5868 249.696 66.6775 250.976C68.8108 252.256 70.4322 254.069 71.5415 256.416C72.6935 258.72 73.2695 261.429 73.2695 264.544V267.936H49.7815C49.8668 271.819 50.8482 274.784 52.7255 276.832C54.6455 278.837 57.3122 279.84 60.7255 279.84C62.9015 279.84 64.8215 279.648 66.4855 279.264C68.1922 278.837 69.9415 278.24 71.7335 277.472V282.4C69.9842 283.168 68.2562 283.723 66.5495 284.064C64.8428 284.448 62.8162 284.64 60.4695 284.64C57.2268 284.64 54.3468 283.979 51.8295 282.656C49.3548 281.333 47.4135 279.371 46.0055 276.768C44.6402 274.123 43.9575 270.901 43.9575 267.104C43.9575 263.349 44.5762 260.128 45.8135 257.44C47.0935 254.752 48.8642 252.683 51.1255 251.232C53.4295 249.781 56.0962 249.056 59.1255 249.056ZM59.0615 253.664C56.3735 253.664 54.2402 254.539 52.6615 256.288C51.1255 257.995 50.2082 260.384 49.9095 263.456H67.3815C67.3815 261.493 67.0828 259.787 66.4855 258.336C65.8882 256.885 64.9708 255.755 63.7335 254.944C62.5388 254.091 60.9815 253.664 59.0615 253.664ZM109.779 235.488C109.608 237.621 109.075 239.413 108.179 240.864C107.325 242.315 106.045 243.403 104.339 244.128C102.632 244.853 100.413 245.216 97.6825 245.216C94.9092 245.216 92.6692 244.853 90.9625 244.128C89.2985 243.403 88.0825 242.336 87.3145 240.928C86.5465 239.477 86.0772 237.664 85.9065 235.488H91.1545C91.3678 237.792 91.9652 239.349 92.9465 240.16C93.9705 240.928 95.5918 241.312 97.8105 241.312C99.7732 241.312 101.309 240.907 102.419 240.096C103.571 239.243 104.253 237.707 104.467 235.488H109.779ZM87.3145 270.624C87.3145 271.008 87.2932 271.563 87.2505 272.288C87.2505 272.971 87.2292 273.717 87.1865 274.528C87.1438 275.296 87.1012 276.043 87.0585 276.768C87.0158 277.451 86.9732 278.005 86.9305 278.432L105.299 249.696H112.211V284H106.963V263.776C106.963 263.093 106.963 262.197 106.963 261.088C107.005 259.979 107.048 258.891 107.091 257.824C107.133 256.715 107.176 255.883 107.219 255.328L88.9785 284H82.0025V249.696H87.3145V270.624ZM128.056 262.176C128.056 264.181 128.61 265.675 129.72 266.656C130.872 267.595 132.514 268.064 134.648 268.064C136.781 268.064 138.722 267.744 140.472 267.104C142.221 266.421 144.013 265.525 145.848 264.416V249.696H151.479V284H145.848V268.704C143.928 269.941 142.029 270.923 140.152 271.648C138.317 272.331 136.098 272.672 133.496 272.672C129.997 272.672 127.266 271.755 125.304 269.92C123.384 268.085 122.424 265.632 122.424 262.56V249.696H128.056V262.176ZM175.37 249.12C179.551 249.12 182.644 250.037 184.65 251.872C186.655 253.707 187.658 256.629 187.658 260.64V284H183.562L182.474 279.136H182.218C181.236 280.373 180.212 281.419 179.146 282.272C178.122 283.083 176.927 283.68 175.562 284.064C174.239 284.448 172.618 284.64 170.698 284.64C168.65 284.64 166.794 284.277 165.13 283.552C163.508 282.827 162.228 281.717 161.29 280.224C160.351 278.688 159.882 276.768 159.882 274.464C159.882 271.051 161.226 268.427 163.914 266.592C166.602 264.715 170.74 263.691 176.33 263.52L182.154 263.328V261.28C182.154 258.421 181.535 256.437 180.298 255.328C179.06 254.219 177.311 253.664 175.05 253.664C173.258 253.664 171.551 253.941 169.93 254.496C168.308 255.008 166.794 255.605 165.385 256.288L163.658 252.064C165.151 251.253 166.922 250.571 168.97 250.016C171.018 249.419 173.151 249.12 175.37 249.12ZM177.034 267.424C172.767 267.595 169.802 268.277 168.138 269.472C166.516 270.667 165.706 272.352 165.706 274.528C165.706 276.448 166.282 277.856 167.434 278.752C168.628 279.648 170.143 280.096 171.978 280.096C174.879 280.096 177.29 279.307 179.21 277.728C181.13 276.107 182.09 273.632 182.09 270.304V267.232L177.034 267.424ZM212.013 284.64C208.983 284.64 206.274 284.021 203.885 282.784C201.538 281.547 199.682 279.627 198.317 277.024C196.994 274.421 196.333 271.093 196.333 267.04C196.333 262.816 197.037 259.381 198.445 256.736C199.853 254.091 201.751 252.149 204.141 250.912C206.573 249.675 209.325 249.056 212.397 249.056C214.146 249.056 215.831 249.248 217.453 249.632C219.074 249.973 220.397 250.4 221.421 250.912L219.693 255.584C218.669 255.2 217.474 254.837 216.109 254.496C214.743 254.155 213.463 253.984 212.269 253.984C209.965 253.984 208.066 254.475 206.573 255.456C205.079 256.437 203.97 257.888 203.245 259.808C202.519 261.728 202.157 264.117 202.157 266.976C202.157 269.707 202.519 272.032 203.245 273.952C203.97 275.872 205.058 277.323 206.509 278.304C207.959 279.285 209.773 279.776 211.949 279.776C213.826 279.776 215.469 279.584 216.877 279.2C218.327 278.816 219.65 278.347 220.845 277.792V282.784C219.693 283.381 218.413 283.829 217.005 284.128C215.639 284.469 213.975 284.64 212.013 284.64ZM237.689 249.696H243.705L251.129 269.216C251.556 270.368 251.94 271.477 252.281 272.544C252.665 273.611 253.006 274.656 253.305 275.68C253.604 276.661 253.838 277.621 254.009 278.56H254.265C254.521 277.493 254.926 276.107 255.481 274.4C256.036 272.651 256.612 270.901 257.209 269.152L264.185 249.696H270.265L255.481 288.736C254.67 290.869 253.71 292.725 252.601 294.304C251.534 295.925 250.212 297.163 248.633 298.016C247.097 298.912 245.22 299.36 243.001 299.36C241.977 299.36 241.081 299.296 240.313 299.168C239.545 299.083 238.884 298.976 238.329 298.848V294.368C238.798 294.453 239.353 294.539 239.993 294.624C240.676 294.709 241.38 294.752 242.105 294.752C243.428 294.752 244.558 294.496 245.497 293.984C246.478 293.515 247.31 292.811 247.993 291.872C248.676 290.976 249.252 289.909 249.721 288.672L251.513 284.128L237.689 249.696ZM317.337 258.336C317.337 260.469 316.697 262.133 315.417 263.328C314.137 264.523 312.494 265.333 310.489 265.76V266.016C312.622 266.315 314.478 267.083 316.057 268.32C317.635 269.515 318.425 271.392 318.425 273.952C318.425 275.403 318.147 276.747 317.593 277.984C317.081 279.221 316.27 280.288 315.161 281.184C314.051 282.08 312.622 282.784 310.873 283.296C309.123 283.765 307.011 284 304.537 284H289.753V249.696H304.473C306.905 249.696 309.081 249.973 311.001 250.528C312.963 251.04 314.499 251.936 315.609 253.216C316.761 254.453 317.337 256.16 317.337 258.336ZM312.601 273.952C312.601 271.989 311.854 270.581 310.361 269.728C308.867 268.875 306.67 268.448 303.769 268.448H295.385V279.456H303.897C306.713 279.456 308.867 279.051 310.361 278.24C311.854 277.387 312.601 275.957 312.601 273.952ZM311.641 259.04C311.641 257.419 311.043 256.245 309.849 255.52C308.697 254.752 306.798 254.368 304.153 254.368H295.385V263.776H303.128C305.902 263.776 308.014 263.392 309.465 262.624C310.915 261.856 311.641 260.661 311.641 259.04ZM339.62 249.12C343.801 249.12 346.894 250.037 348.9 251.872C350.905 253.707 351.908 256.629 351.908 260.64V284H347.812L346.724 279.136H346.468C345.486 280.373 344.462 281.419 343.396 282.272C342.372 283.083 341.177 283.68 339.812 284.064C338.489 284.448 336.868 284.64 334.948 284.64C332.9 284.64 331.044 284.277 329.38 283.552C327.758 282.827 326.478 281.717 325.54 280.224C324.601 278.688 324.132 276.768 324.132 274.464C324.132 271.051 325.476 268.427 328.164 266.592C330.852 264.715 334.99 263.691 340.58 263.52L346.404 263.328V261.28C346.404 258.421 345.785 256.437 344.548 255.328C343.31 254.219 341.561 253.664 339.3 253.664C337.508 253.664 335.801 253.941 334.18 254.496C332.558 255.008 331.044 255.605 329.635 256.288L327.908 252.064C329.401 251.253 331.172 250.571 333.22 250.016C335.268 249.419 337.401 249.12 339.62 249.12ZM341.284 267.424C337.017 267.595 334.052 268.277 332.388 269.472C330.766 270.667 329.956 272.352 329.956 274.528C329.956 276.448 330.532 277.856 331.684 278.752C332.878 279.648 334.393 280.096 336.228 280.096C339.129 280.096 341.54 279.307 343.46 277.728C345.38 276.107 346.34 273.632 346.34 270.304V267.232L341.284 267.424ZM376.263 284.64C373.233 284.64 370.524 284.021 368.135 282.784C365.788 281.547 363.932 279.627 362.567 277.024C361.244 274.421 360.583 271.093 360.583 267.04C360.583 262.816 361.287 259.381 362.695 256.736C364.103 254.091 366.001 252.149 368.391 250.912C370.823 249.675 373.575 249.056 376.647 249.056C378.396 249.056 380.081 249.248 381.703 249.632C383.324 249.973 384.647 250.4 385.671 250.912L383.943 255.584C382.919 255.2 381.724 254.837 380.359 254.496C378.993 254.155 377.713 253.984 376.519 253.984C374.215 253.984 372.316 254.475 370.823 255.456C369.329 256.437 368.22 257.888 367.495 259.808C366.769 261.728 366.407 264.117 366.407 266.976C366.407 269.707 366.769 272.032 367.495 273.952C368.22 275.872 369.308 277.323 370.759 278.304C372.209 279.285 374.023 279.776 376.199 279.776C378.076 279.776 379.719 279.584 381.127 279.2C382.577 278.816 383.9 278.347 385.095 277.792V282.784C383.943 283.381 382.663 283.829 381.255 284.128C379.889 284.469 378.225 284.64 376.263 284.64ZM11.072 321.696V335.968H29.696V321.696H35.328V356H29.696V340.704H11.072V356H5.44V321.696H11.072ZM59.438 321.056C62.382 321.056 64.8993 321.696 66.99 322.976C69.1233 324.256 70.7447 326.069 71.854 328.416C73.006 330.72 73.582 333.429 73.582 336.544V339.936H50.094C50.1793 343.819 51.1607 346.784 53.038 348.832C54.958 350.837 57.6247 351.84 61.038 351.84C63.214 351.84 65.134 351.648 66.798 351.264C68.5047 350.837 70.254 350.24 72.046 349.472V354.4C70.2967 355.168 68.5687 355.723 66.862 356.064C65.1553 356.448 63.1287 356.64 60.782 356.64C57.5393 356.64 54.6593 355.979 52.142 354.656C49.6673 353.333 47.726 351.371 46.318 348.768C44.9527 346.123 44.27 342.901 44.27 339.104C44.27 335.349 44.8887 332.128 46.126 329.44C47.406 326.752 49.1767 324.683 51.438 323.232C53.742 321.781 56.4087 321.056 59.438 321.056ZM59.374 325.664C56.686 325.664 54.5527 326.539 52.974 328.288C51.438 329.995 50.5207 332.384 50.222 335.456H67.694C67.694 333.493 67.3953 331.787 66.798 330.336C66.2007 328.885 65.2833 327.755 64.046 326.944C62.8513 326.091 61.294 325.664 59.374 325.664ZM105.995 326.432H94.795V356H89.227V326.432H78.155V321.696H105.995V326.432ZM155.807 321.696V356H150.175V326.496H132.447V356H126.815V321.696H155.807ZM183.073 321.056C187.297 321.056 190.689 322.528 193.249 325.472C195.851 328.416 197.153 332.853 197.153 338.784C197.153 342.667 196.555 345.952 195.361 348.64C194.208 351.285 192.566 353.291 190.433 354.656C188.342 355.979 185.867 356.64 183.009 356.64C181.259 356.64 179.702 356.405 178.337 355.936C176.971 355.467 175.798 354.869 174.817 354.144C173.878 353.376 173.067 352.544 172.385 351.648H172.001C172.086 352.373 172.171 353.291 172.257 354.4C172.342 355.509 172.385 356.469 172.385 357.28V371.36H166.753V321.696H171.361L172.129 326.368H172.385C173.067 325.387 173.878 324.491 174.817 323.68C175.798 322.869 176.95 322.229 178.273 321.76C179.638 321.291 181.238 321.056 183.073 321.056ZM182.049 325.792C179.745 325.792 177.889 326.24 176.481 327.136C175.073 327.989 174.049 329.291 173.409 331.04C172.769 332.789 172.427 335.008 172.385 337.696V338.784C172.385 341.6 172.683 343.989 173.281 345.952C173.878 347.915 174.881 349.408 176.289 350.432C177.739 351.456 179.702 351.968 182.177 351.968C184.267 351.968 185.974 351.392 187.297 350.24C188.662 349.088 189.665 347.531 190.305 345.568C190.987 343.563 191.329 341.28 191.329 338.72C191.329 334.795 190.561 331.659 189.025 329.312C187.531 326.965 185.206 325.792 182.049 325.792ZM235.951 338.784C235.951 341.643 235.568 344.181 234.8 346.4C234.074 348.576 233.008 350.432 231.6 351.968C230.234 353.504 228.549 354.677 226.544 355.488C224.581 356.256 222.384 356.64 219.952 356.64C217.69 356.64 215.6 356.256 213.68 355.488C211.76 354.677 210.096 353.504 208.688 351.968C207.28 350.432 206.17 348.576 205.36 346.4C204.592 344.181 204.208 341.643 204.208 338.784C204.208 334.987 204.848 331.787 206.128 329.184C207.408 326.539 209.242 324.533 211.632 323.168C214.021 321.76 216.858 321.056 220.144 321.056C223.258 321.056 225.989 321.76 228.336 323.168C230.725 324.533 232.581 326.539 233.904 329.184C235.269 331.787 235.951 334.987 235.951 338.784ZM210.032 338.784C210.032 341.472 210.373 343.819 211.056 345.824C211.781 347.787 212.89 349.301 214.384 350.368C215.877 351.435 217.776 351.968 220.08 351.968C222.384 351.968 224.282 351.435 225.776 350.368C227.269 349.301 228.357 347.787 229.04 345.824C229.765 343.819 230.128 341.472 230.128 338.784C230.128 336.053 229.765 333.728 229.04 331.808C228.314 329.888 227.205 328.416 225.712 327.392C224.261 326.325 222.362 325.792 220.016 325.792C216.517 325.792 213.978 326.944 212.4 329.248C210.821 331.552 210.032 334.731 210.032 338.784ZM258.126 321.056C261.07 321.056 263.587 321.696 265.678 322.976C267.811 324.256 269.432 326.069 270.542 328.416C271.694 330.72 272.27 333.429 272.27 336.544V339.936H248.782C248.867 343.819 249.848 346.784 251.726 348.832C253.646 350.837 256.312 351.84 259.726 351.84C261.902 351.84 263.822 351.648 265.486 351.264C267.192 350.837 268.942 350.24 270.734 349.472V354.4C268.984 355.168 267.256 355.723 265.55 356.064C263.843 356.448 261.816 356.64 259.47 356.64C256.227 356.64 253.347 355.979 250.83 354.656C248.355 353.333 246.414 351.371 245.006 348.768C243.64 346.123 242.958 342.901 242.958 339.104C242.958 335.349 243.576 332.128 244.814 329.44C246.094 326.752 247.864 324.683 250.126 323.232C252.43 321.781 255.096 321.056 258.126 321.056ZM258.062 325.664C255.374 325.664 253.24 326.539 251.662 328.288C250.126 329.995 249.208 332.384 248.91 335.456H266.382C266.382 333.493 266.083 331.787 265.486 330.336C264.888 328.885 263.971 327.755 262.734 326.944C261.539 326.091 259.982 325.664 258.062 325.664ZM301.291 321.696H307.435L292.779 338.208L308.651 356H302.123L286.635 338.592V356H281.003V321.696H286.635V338.336L301.291 321.696ZM338.558 326.432H327.358V356H321.79V326.432H310.718V321.696H338.558V326.432ZM374.514 338.784C374.514 341.643 374.13 344.181 373.362 346.4C372.637 348.576 371.57 350.432 370.162 351.968C368.797 353.504 367.111 354.677 365.106 355.488C363.143 356.256 360.946 356.64 358.514 356.64C356.253 356.64 354.162 356.256 352.242 355.488C350.322 354.677 348.658 353.504 347.25 351.968C345.842 350.432 344.733 348.576 343.922 346.4C343.154 344.181 342.77 341.643 342.77 338.784C342.77 334.987 343.41 331.787 344.69 329.184C345.97 326.539 347.805 324.533 350.194 323.168C352.583 321.76 355.421 321.056 358.706 321.056C361.821 321.056 364.551 321.76 366.898 323.168C369.287 324.533 371.143 326.539 372.466 329.184C373.831 331.787 374.514 334.987 374.514 338.784ZM348.594 338.784C348.594 341.472 348.935 343.819 349.618 345.824C350.343 347.787 351.453 349.301 352.946 350.368C354.439 351.435 356.338 351.968 358.642 351.968C360.946 351.968 362.845 351.435 364.338 350.368C365.831 349.301 366.919 347.787 367.602 345.824C368.327 343.819 368.69 341.472 368.69 338.784C368.69 336.053 368.327 333.728 367.602 331.808C366.877 329.888 365.767 328.416 364.274 327.392C362.823 326.325 360.925 325.792 358.578 325.792C355.079 325.792 352.541 326.944 350.962 329.248C349.383 331.552 348.594 334.731 348.594 338.784ZM411.024 330.336C411.024 332.469 410.384 334.133 409.104 335.328C407.824 336.523 406.181 337.333 404.176 337.76V338.016C406.309 338.315 408.165 339.083 409.744 340.32C411.323 341.515 412.112 343.392 412.112 345.952C412.112 347.403 411.835 348.747 411.28 349.984C410.768 351.221 409.957 352.288 408.848 353.184C407.739 354.08 406.309 354.784 404.56 355.296C402.811 355.765 400.699 356 398.224 356H383.44V321.696H398.16C400.592 321.696 402.768 321.973 404.688 322.528C406.651 323.04 408.187 323.936 409.296 325.216C410.448 326.453 411.024 328.16 411.024 330.336ZM406.288 345.952C406.288 343.989 405.541 342.581 404.048 341.728C402.555 340.875 400.357 340.448 397.456 340.448H389.072V351.456H397.584C400.4 351.456 402.555 351.051 404.048 350.24C405.541 349.387 406.288 347.957 406.288 345.952ZM405.328 331.04C405.328 329.419 404.731 328.245 403.536 327.52C402.384 326.752 400.485 326.368 397.84 326.368H389.072V335.776H396.816C399.589 335.776 401.701 335.392 403.152 334.624C404.603 333.856 405.328 332.661 405.328 331.04Z" fill="black"/>
<path d="M15.288 409H13.848V403.672H7.992V409H6.552V397.576H7.992V402.408H13.848V397.576H15.288V409ZM21.4674 400.28C22.5127 400.28 23.286 400.509 23.7874 400.968C24.2887 401.427 24.5394 402.157 24.5394 403.16V409H23.5154L23.2434 407.784H23.1794C22.934 408.093 22.678 408.355 22.4114 408.568C22.1554 408.771 21.8567 408.92 21.5154 409.016C21.1847 409.112 20.7794 409.16 20.2994 409.16C19.7874 409.16 19.3234 409.069 18.9074 408.888C18.502 408.707 18.182 408.429 17.9474 408.056C17.7127 407.672 17.5954 407.192 17.5954 406.616C17.5954 405.763 17.9314 405.107 18.6034 404.648C19.2754 404.179 20.31 403.923 21.7074 403.88L23.1634 403.832V403.32C23.1634 402.605 23.0087 402.109 22.6994 401.832C22.39 401.555 21.9527 401.416 21.3874 401.416C20.9394 401.416 20.5127 401.485 20.1074 401.624C19.702 401.752 19.3234 401.901 18.9714 402.072L18.5394 401.016C18.9127 400.813 19.3554 400.643 19.8674 400.504C20.3794 400.355 20.9127 400.28 21.4674 400.28ZM21.8834 404.856C20.8167 404.899 20.0754 405.069 19.6594 405.368C19.254 405.667 19.0514 406.088 19.0514 406.632C19.0514 407.112 19.1954 407.464 19.4834 407.688C19.782 407.912 20.1607 408.024 20.6194 408.024C21.3447 408.024 21.9474 407.827 22.4274 407.432C22.9074 407.027 23.1474 406.408 23.1474 405.576V404.808L21.8834 404.856ZM37.4761 400.424L33.9401 404.584L37.7801 409H36.1801L32.4681 404.648V409H31.1561V404.648L27.4441 409H25.8441L29.6841 404.584L26.1481 400.424H27.6841L31.1561 404.584V400.424H32.4681V404.584L35.9561 400.424H37.4761ZM48.3881 400.424V409H47.1241V403.528C47.1241 403.304 47.1295 403.069 47.1401 402.824C47.1615 402.579 47.1828 402.339 47.2041 402.104H47.1561L44.3561 409H43.1721L40.4521 402.104H40.4041C40.4255 402.339 40.4361 402.579 40.4361 402.824C40.4468 403.069 40.4521 403.32 40.4521 403.576V409H39.1881V400.424H41.0601L43.7641 407.32L46.5161 400.424H48.3881ZM52.4536 405.656C52.4536 405.752 52.4483 405.891 52.4376 406.072C52.4376 406.243 52.4323 406.429 52.4216 406.632C52.411 406.824 52.4003 407.011 52.3896 407.192C52.379 407.363 52.3683 407.501 52.3576 407.608L56.9496 400.424H58.6776V409H57.3656V403.944C57.3656 403.773 57.3656 403.549 57.3656 403.272C57.3763 402.995 57.387 402.723 57.3976 402.456C57.4083 402.179 57.419 401.971 57.4296 401.832L52.8696 409H51.1256V400.424H52.4536V405.656ZM67.3269 401.608H64.5269V409H63.1349V401.608H60.3669V400.424H67.3269V401.608ZM72.172 400.264C72.908 400.264 73.5373 400.424 74.06 400.744C74.5933 401.064 74.9987 401.517 75.276 402.104C75.564 402.68 75.708 403.357 75.708 404.136V404.984H69.836C69.8573 405.955 70.1027 406.696 70.572 407.208C71.052 407.709 71.7187 407.96 72.572 407.96C73.116 407.96 73.596 407.912 74.012 407.816C74.4387 407.709 74.876 407.56 75.324 407.368V408.6C74.8867 408.792 74.4547 408.931 74.028 409.016C73.6013 409.112 73.0947 409.16 72.508 409.16C71.6973 409.16 70.9773 408.995 70.348 408.664C69.7293 408.333 69.244 407.843 68.892 407.192C68.5507 406.531 68.38 405.725 68.38 404.776C68.38 403.837 68.5347 403.032 68.844 402.36C69.164 401.688 69.6067 401.171 70.172 400.808C70.748 400.445 71.4147 400.264 72.172 400.264ZM72.156 401.416C71.484 401.416 70.9507 401.635 70.556 402.072C70.172 402.499 69.9427 403.096 69.868 403.864H74.236C74.236 403.373 74.1613 402.947 74.012 402.584C73.8627 402.221 73.6333 401.939 73.324 401.736C73.0253 401.523 72.636 401.416 72.156 401.416ZM84.7368 400.424V403.992H89.3928V400.424H90.8008V409H89.3928V405.176H84.7368V409H83.3288V400.424H84.7368ZM96.7643 400.28C97.8096 400.28 98.5829 400.509 99.0843 400.968C99.5856 401.427 99.8363 402.157 99.8363 403.16V409H98.8123L98.5403 407.784H98.4763C98.2309 408.093 97.9749 408.355 97.7083 408.568C97.4523 408.771 97.1536 408.92 96.8123 409.016C96.4816 409.112 96.0763 409.16 95.5963 409.16C95.0843 409.16 94.6203 409.069 94.2043 408.888C93.7989 408.707 93.4789 408.429 93.2443 408.056C93.0096 407.672 92.8923 407.192 92.8923 406.616C92.8923 405.763 93.2283 405.107 93.9003 404.648C94.5723 404.179 95.6069 403.923 97.0043 403.88L98.4603 403.832V403.32C98.4603 402.605 98.3056 402.109 97.9963 401.832C97.6869 401.555 97.2496 401.416 96.6843 401.416C96.2363 401.416 95.8096 401.485 95.4043 401.624C94.9989 401.752 94.6203 401.901 94.2682 402.072L93.8363 401.016C94.2096 400.813 94.6523 400.643 95.1643 400.504C95.6763 400.355 96.2096 400.28 96.7643 400.28ZM97.1803 404.856C96.1136 404.899 95.3723 405.069 94.9563 405.368C94.5509 405.667 94.3483 406.088 94.3483 406.632C94.3483 407.112 94.4923 407.464 94.7803 407.688C95.0789 407.912 95.4576 408.024 95.9163 408.024C96.6416 408.024 97.2443 407.827 97.7243 407.432C98.2043 407.027 98.4443 406.408 98.4443 405.576V404.808L97.1803 404.856ZM110.276 400.424H111.812L108.148 404.552L112.116 409H110.484L106.612 404.648V409H105.204V400.424H106.612V404.584L110.276 400.424ZM115.081 400.424V403.992H119.737V400.424H121.145V409H119.737V405.176H115.081V409H113.673V400.424H115.081ZM131.316 404.696C131.316 405.411 131.22 406.045 131.028 406.6C130.847 407.144 130.58 407.608 130.228 407.992C129.887 408.376 129.465 408.669 128.964 408.872C128.473 409.064 127.924 409.16 127.316 409.16C126.751 409.16 126.228 409.064 125.748 408.872C125.268 408.669 124.852 408.376 124.5 407.992C124.148 407.608 123.871 407.144 123.668 406.6C123.476 406.045 123.38 405.411 123.38 404.696C123.38 403.747 123.54 402.947 123.86 402.296C124.18 401.635 124.639 401.133 125.236 400.792C125.833 400.44 126.543 400.264 127.364 400.264C128.143 400.264 128.825 400.44 129.412 400.792C130.009 401.133 130.473 401.635 130.804 402.296C131.145 402.947 131.316 403.747 131.316 404.696ZM124.836 404.696C124.836 405.368 124.921 405.955 125.092 406.456C125.273 406.947 125.551 407.325 125.924 407.592C126.297 407.859 126.772 407.992 127.348 407.992C127.924 407.992 128.399 407.859 128.772 407.592C129.145 407.325 129.417 406.947 129.588 406.456C129.769 405.955 129.86 405.368 129.86 404.696C129.86 404.013 129.769 403.432 129.588 402.952C129.407 402.472 129.129 402.104 128.756 401.848C128.393 401.581 127.919 401.448 127.332 401.448C126.457 401.448 125.823 401.736 125.428 402.312C125.033 402.888 124.836 403.683 124.836 404.696ZM140.796 400.424V409H139.388V401.624H134.956V409H133.548V400.424H140.796ZM148.604 400.424H150.14L146.476 404.552L150.444 409H148.812L144.94 404.648V409H143.532V400.424H144.94V404.584L148.604 400.424ZM150.657 400.424H152.161L154.017 405.304C154.123 405.592 154.219 405.869 154.305 406.136C154.401 406.403 154.486 406.664 154.561 406.92C154.635 407.165 154.694 407.405 154.737 407.64H154.801C154.865 407.373 154.966 407.027 155.105 406.6C155.243 406.163 155.387 405.725 155.537 405.288L157.281 400.424H158.801L155.105 410.184C154.902 410.717 154.662 411.181 154.385 411.576C154.118 411.981 153.787 412.291 153.393 412.504C153.009 412.728 152.539 412.84 151.985 412.84C151.729 412.84 151.505 412.824 151.313 412.792C151.121 412.771 150.955 412.744 150.817 412.712V411.592C150.934 411.613 151.073 411.635 151.233 411.656C151.403 411.677 151.579 411.688 151.761 411.688C152.091 411.688 152.374 411.624 152.609 411.496C152.854 411.379 153.062 411.203 153.233 410.968C153.403 410.744 153.547 410.477 153.665 410.168L154.113 409.032L150.657 400.424ZM165.196 400.568V399.224C165.196 398.605 165.329 398.093 165.596 397.688C165.873 397.283 166.273 397.016 166.796 396.888V397.448C166.476 397.533 166.246 397.693 166.108 397.928C165.969 398.152 165.889 398.445 165.868 398.808H166.476V400.568H165.196ZM162.796 400.568V399.224C162.796 398.605 162.929 398.093 163.196 397.688C163.473 397.283 163.873 397.016 164.396 396.888V397.448C164.076 397.533 163.846 397.693 163.708 397.928C163.569 398.152 163.489 398.445 163.468 398.808H164.076V400.568H162.796ZM173.034 409.16C172.277 409.16 171.6 409.005 171.002 408.696C170.416 408.387 169.952 407.907 169.61 407.256C169.28 406.605 169.114 405.773 169.114 404.76C169.114 403.704 169.29 402.845 169.642 402.184C169.994 401.523 170.469 401.037 171.066 400.728C171.674 400.419 172.362 400.264 173.13 400.264C173.568 400.264 173.989 400.312 174.394 400.408C174.8 400.493 175.13 400.6 175.386 400.728L174.954 401.896C174.698 401.8 174.4 401.709 174.058 401.624C173.717 401.539 173.397 401.496 173.098 401.496C172.522 401.496 172.048 401.619 171.674 401.864C171.301 402.109 171.024 402.472 170.842 402.952C170.661 403.432 170.57 404.029 170.57 404.744C170.57 405.427 170.661 406.008 170.842 406.488C171.024 406.968 171.296 407.331 171.658 407.576C172.021 407.821 172.474 407.944 173.018 407.944C173.488 407.944 173.898 407.896 174.25 407.8C174.613 407.704 174.944 407.587 175.242 407.448V408.696C174.954 408.845 174.634 408.957 174.282 409.032C173.941 409.117 173.525 409.16 173.034 409.16ZM184.738 404.696C184.738 405.411 184.642 406.045 184.45 406.6C184.269 407.144 184.002 407.608 183.65 407.992C183.309 408.376 182.887 408.669 182.386 408.872C181.895 409.064 181.346 409.16 180.738 409.16C180.173 409.16 179.65 409.064 179.17 408.872C178.69 408.669 178.274 408.376 177.922 407.992C177.57 407.608 177.293 407.144 177.09 406.6C176.898 406.045 176.802 405.411 176.802 404.696C176.802 403.747 176.962 402.947 177.282 402.296C177.602 401.635 178.061 401.133 178.658 400.792C179.255 400.44 179.965 400.264 180.786 400.264C181.565 400.264 182.247 400.44 182.834 400.792C183.431 401.133 183.895 401.635 184.226 402.296C184.567 402.947 184.738 403.747 184.738 404.696ZM178.258 404.696C178.258 405.368 178.343 405.955 178.514 406.456C178.695 406.947 178.973 407.325 179.346 407.592C179.719 407.859 180.194 407.992 180.77 407.992C181.346 407.992 181.821 407.859 182.194 407.592C182.567 407.325 182.839 406.947 183.01 406.456C183.191 405.955 183.282 405.368 183.282 404.696C183.282 404.013 183.191 403.432 183.01 402.952C182.829 402.472 182.551 402.104 182.178 401.848C181.815 401.581 181.341 401.448 180.754 401.448C179.879 401.448 179.245 401.736 178.85 402.312C178.455 402.888 178.258 403.683 178.258 404.696ZM189.225 400.264C189.876 400.264 190.441 400.355 190.921 400.536C191.401 400.707 191.775 400.963 192.041 401.304C192.308 401.635 192.441 402.04 192.441 402.52C192.441 403.043 192.297 403.459 192.009 403.768C191.721 404.067 191.327 404.285 190.825 404.424V404.488C191.167 404.584 191.481 404.717 191.769 404.888C192.057 405.059 192.287 405.283 192.457 405.56C192.639 405.837 192.729 406.195 192.729 406.632C192.729 407.101 192.596 407.528 192.329 407.912C192.073 408.296 191.673 408.6 191.129 408.824C190.596 409.048 189.908 409.16 189.065 409.16C188.66 409.16 188.271 409.139 187.897 409.096C187.535 409.053 187.204 408.989 186.905 408.904C186.617 408.819 186.361 408.717 186.137 408.6V407.336C186.5 407.507 186.927 407.661 187.417 407.8C187.919 407.939 188.463 408.008 189.049 408.008C189.476 408.008 189.86 407.96 190.201 407.864C190.553 407.768 190.831 407.619 191.033 407.416C191.236 407.203 191.337 406.915 191.337 406.552C191.337 406.221 191.247 405.955 191.065 405.752C190.884 405.539 190.612 405.379 190.249 405.272C189.897 405.165 189.444 405.112 188.889 405.112H187.737V403.96H188.665C189.401 403.96 189.988 403.864 190.425 403.672C190.873 403.469 191.097 403.128 191.097 402.648C191.097 402.243 190.927 401.939 190.585 401.736C190.255 401.533 189.775 401.432 189.145 401.432C188.676 401.432 188.26 401.48 187.897 401.576C187.545 401.661 187.156 401.795 186.729 401.976L186.233 400.856C186.692 400.653 187.172 400.504 187.673 400.408C188.175 400.312 188.692 400.264 189.225 400.264ZM201.181 400.424V407.816H202.429V411.976H201.069V409H195.101V411.976H193.757V407.816H194.445C194.936 407.133 195.341 406.392 195.661 405.592C195.992 404.781 196.237 403.939 196.397 403.064C196.568 402.179 196.658 401.299 196.669 400.424H201.181ZM197.917 401.528C197.874 402.253 197.762 403.005 197.581 403.784C197.4 404.552 197.165 405.288 196.877 405.992C196.6 406.696 196.274 407.304 195.901 407.816H199.821V401.528H197.917ZM207.358 400.28C208.403 400.28 209.177 400.509 209.678 400.968C210.179 401.427 210.43 402.157 210.43 403.16V409H209.406L209.134 407.784H209.07C208.825 408.093 208.569 408.355 208.302 408.568C208.046 408.771 207.747 408.92 207.406 409.016C207.075 409.112 206.67 409.16 206.19 409.16C205.678 409.16 205.214 409.069 204.798 408.888C204.393 408.707 204.073 408.429 203.838 408.056C203.603 407.672 203.486 407.192 203.486 406.616C203.486 405.763 203.822 405.107 204.494 404.648C205.166 404.179 206.201 403.923 207.598 403.88L209.054 403.832V403.32C209.054 402.605 208.899 402.109 208.59 401.832C208.281 401.555 207.843 401.416 207.278 401.416C206.83 401.416 206.403 401.485 205.998 401.624C205.593 401.752 205.214 401.901 204.862 402.072L204.43 401.016C204.803 400.813 205.246 400.643 205.758 400.504C206.27 400.355 206.803 400.28 207.358 400.28ZM207.774 404.856C206.707 404.899 205.966 405.069 205.55 405.368C205.145 405.667 204.942 406.088 204.942 406.632C204.942 407.112 205.086 407.464 205.374 407.688C205.673 407.912 206.051 408.024 206.51 408.024C207.235 408.024 207.838 407.827 208.318 407.432C208.798 407.027 209.038 406.408 209.038 405.576V404.808L207.774 404.856ZM218.999 401.608H216.199V409H214.807V401.608H212.039V400.424H218.999V401.608ZM224.64 403.944C225.387 403.944 226.005 404.035 226.496 404.216C226.987 404.397 227.355 404.669 227.6 405.032C227.856 405.384 227.984 405.832 227.984 406.376C227.984 406.909 227.861 407.373 227.616 407.768C227.381 408.163 227.013 408.467 226.512 408.68C226.011 408.893 225.365 409 224.576 409H220.688V400.424H222.096V403.944H224.64ZM226.576 406.456C226.576 405.933 226.389 405.581 226.016 405.4C225.653 405.208 225.141 405.112 224.48 405.112H222.096V407.864H224.512C225.109 407.864 225.6 407.757 225.984 407.544C226.379 407.331 226.576 406.968 226.576 406.456ZM242.874 400.424V409H241.466V401.624H237.034V409H235.626V400.424H242.874ZM249.69 400.264C250.746 400.264 251.594 400.632 252.234 401.368C252.885 402.104 253.21 403.213 253.21 404.696C253.21 405.667 253.061 406.488 252.762 407.16C252.474 407.821 252.063 408.323 251.53 408.664C251.007 408.995 250.389 409.16 249.674 409.16C249.237 409.16 248.847 409.101 248.506 408.984C248.165 408.867 247.871 408.717 247.626 408.536C247.391 408.344 247.189 408.136 247.018 407.912H246.922C246.943 408.093 246.965 408.323 246.986 408.6C247.007 408.877 247.018 409.117 247.018 409.32V412.84H245.61V400.424H246.762L246.954 401.592H247.018C247.189 401.347 247.391 401.123 247.626 400.92C247.871 400.717 248.159 400.557 248.49 400.44C248.831 400.323 249.231 400.264 249.69 400.264ZM249.434 401.448C248.858 401.448 248.394 401.56 248.042 401.784C247.69 401.997 247.434 402.323 247.274 402.76C247.114 403.197 247.029 403.752 247.018 404.424V404.696C247.018 405.4 247.093 405.997 247.242 406.488C247.391 406.979 247.642 407.352 247.994 407.608C248.357 407.864 248.847 407.992 249.466 407.992C249.989 407.992 250.415 407.848 250.746 407.56C251.087 407.272 251.338 406.883 251.498 406.392C251.669 405.891 251.754 405.32 251.754 404.68C251.754 403.699 251.562 402.915 251.178 402.328C250.805 401.741 250.223 401.448 249.434 401.448ZM262.91 404.696C262.91 405.411 262.814 406.045 262.622 406.6C262.44 407.144 262.174 407.608 261.822 407.992C261.48 408.376 261.059 408.669 260.558 408.872C260.067 409.064 259.518 409.16 258.91 409.16C258.344 409.16 257.822 409.064 257.342 408.872C256.862 408.669 256.446 408.376 256.094 407.992C255.742 407.608 255.464 407.144 255.262 406.6C255.07 406.045 254.974 405.411 254.974 404.696C254.974 403.747 255.134 402.947 255.454 402.296C255.774 401.635 256.232 401.133 256.83 400.792C257.427 400.44 258.136 400.264 258.958 400.264C259.736 400.264 260.419 400.44 261.006 400.792C261.603 401.133 262.067 401.635 262.398 402.296C262.739 402.947 262.91 403.747 262.91 404.696ZM256.43 404.696C256.43 405.368 256.515 405.955 256.686 406.456C256.867 406.947 257.144 407.325 257.518 407.592C257.891 407.859 258.366 407.992 258.942 407.992C259.518 407.992 259.992 407.859 260.366 407.592C260.739 407.325 261.011 406.947 261.182 406.456C261.363 405.955 261.454 405.368 261.454 404.696C261.454 404.013 261.363 403.432 261.182 402.952C261 402.472 260.723 402.104 260.35 401.848C259.987 401.581 259.512 401.448 258.926 401.448C258.051 401.448 257.416 401.736 257.022 402.312C256.627 402.888 256.43 403.683 256.43 404.696ZM268.453 400.264C269.189 400.264 269.819 400.424 270.341 400.744C270.875 401.064 271.28 401.517 271.557 402.104C271.845 402.68 271.989 403.357 271.989 404.136V404.984H266.117C266.139 405.955 266.384 406.696 266.853 407.208C267.333 407.709 268 407.96 268.853 407.96C269.397 407.96 269.877 407.912 270.293 407.816C270.72 407.709 271.157 407.56 271.605 407.368V408.6C271.168 408.792 270.736 408.931 270.309 409.016C269.883 409.112 269.376 409.16 268.789 409.16C267.979 409.16 267.259 408.995 266.629 408.664C266.011 408.333 265.525 407.843 265.173 407.192C264.832 406.531 264.661 405.725 264.661 404.776C264.661 403.837 264.816 403.032 265.125 402.36C265.445 401.688 265.888 401.171 266.453 400.808C267.029 400.445 267.696 400.264 268.453 400.264ZM268.437 401.416C267.765 401.416 267.232 401.635 266.837 402.072C266.453 402.499 266.224 403.096 266.149 403.864H270.517C270.517 403.373 270.443 402.947 270.293 402.584C270.144 402.221 269.915 401.939 269.605 401.736C269.307 401.523 268.917 401.416 268.437 401.416ZM279.245 400.424H280.781L277.117 404.552L281.085 409H279.453L275.581 404.648V409H274.173V400.424H275.581V404.584L279.245 400.424ZM288.561 401.608H285.761V409H284.369V401.608H281.601V400.424H288.561V401.608ZM292.571 400.76V400.2C292.891 400.115 293.12 399.96 293.259 399.736C293.408 399.501 293.488 399.203 293.499 398.84H292.891V397.08H294.171V398.424C294.171 399.043 294.037 399.555 293.771 399.96C293.504 400.365 293.104 400.632 292.571 400.76ZM290.171 400.76V400.2C290.491 400.115 290.72 399.96 290.859 399.736C291.008 399.501 291.088 399.203 291.099 398.84H290.491V397.08H291.771V398.424C291.771 399.043 291.637 399.555 291.371 399.96C291.104 400.365 290.704 400.632 290.171 400.76ZM301.016 405.656C301.016 405.752 301.011 405.891 301 406.072C301 406.243 300.995 406.429 300.984 406.632C300.973 406.824 300.963 407.011 300.952 407.192C300.941 407.363 300.931 407.501 300.92 407.608L305.512 400.424H307.24V409H305.928V403.944C305.928 403.773 305.928 403.549 305.928 403.272C305.939 402.995 305.949 402.723 305.96 402.456C305.971 402.179 305.981 401.971 305.992 401.832L301.432 409H299.688V400.424H301.016V405.656ZM320.144 404.696C320.144 405.411 320.048 406.045 319.856 406.6C319.675 407.144 319.408 407.608 319.056 407.992C318.715 408.376 318.293 408.669 317.792 408.872C317.301 409.064 316.752 409.16 316.144 409.16C315.579 409.16 315.056 409.064 314.576 408.872C314.096 408.669 313.68 408.376 313.328 407.992C312.976 407.608 312.699 407.144 312.496 406.6C312.304 406.045 312.208 405.411 312.208 404.696C312.208 403.747 312.368 402.947 312.688 402.296C313.008 401.635 313.467 401.133 314.064 400.792C314.661 400.44 315.371 400.264 316.192 400.264C316.971 400.264 317.653 400.44 318.24 400.792C318.837 401.133 319.301 401.635 319.632 402.296C319.973 402.947 320.144 403.747 320.144 404.696ZM313.664 404.696C313.664 405.368 313.749 405.955 313.92 406.456C314.101 406.947 314.379 407.325 314.752 407.592C315.125 407.859 315.6 407.992 316.176 407.992C316.752 407.992 317.227 407.859 317.6 407.592C317.973 407.325 318.245 406.947 318.416 406.456C318.597 405.955 318.688 405.368 318.688 404.696C318.688 404.013 318.597 403.432 318.416 402.952C318.235 402.472 317.957 402.104 317.584 401.848C317.221 401.581 316.747 401.448 316.16 401.448C315.285 401.448 314.651 401.736 314.256 402.312C313.861 402.888 313.664 403.683 313.664 404.696ZM323.784 400.424V403.992H328.44V400.424H329.848V409H328.44V405.176H323.784V409H322.376V400.424H323.784ZM342.738 404.696C342.738 405.411 342.642 406.045 342.45 406.6C342.269 407.144 342.002 407.608 341.65 407.992C341.309 408.376 340.887 408.669 340.386 408.872C339.895 409.064 339.346 409.16 338.738 409.16C338.173 409.16 337.65 409.064 337.17 408.872C336.69 408.669 336.274 408.376 335.922 407.992C335.57 407.608 335.293 407.144 335.09 406.6C334.898 406.045 334.802 405.411 334.802 404.696C334.802 403.747 334.962 402.947 335.282 402.296C335.602 401.635 336.061 401.133 336.658 400.792C337.255 400.44 337.965 400.264 338.786 400.264C339.565 400.264 340.247 400.44 340.834 400.792C341.431 401.133 341.895 401.635 342.226 402.296C342.567 402.947 342.738 403.747 342.738 404.696ZM336.258 404.696C336.258 405.368 336.343 405.955 336.514 406.456C336.695 406.947 336.973 407.325 337.346 407.592C337.719 407.859 338.194 407.992 338.77 407.992C339.346 407.992 339.821 407.859 340.194 407.592C340.567 407.325 340.839 406.947 341.01 406.456C341.191 405.955 341.282 405.368 341.282 404.696C341.282 404.013 341.191 403.432 341.01 402.952C340.829 402.472 340.551 402.104 340.178 401.848C339.815 401.581 339.341 401.448 338.754 401.448C337.879 401.448 337.245 401.736 336.85 402.312C336.455 402.888 336.258 403.683 336.258 404.696ZM350.733 401.608H347.933V409H346.541V401.608H343.773V400.424H350.733V401.608ZM359.722 404.696C359.722 405.411 359.626 406.045 359.434 406.6C359.253 407.144 358.986 407.608 358.634 407.992C358.293 408.376 357.872 408.669 357.37 408.872C356.88 409.064 356.33 409.16 355.722 409.16C355.157 409.16 354.634 409.064 354.154 408.872C353.674 408.669 353.258 408.376 352.906 407.992C352.554 407.608 352.277 407.144 352.074 406.6C351.882 406.045 351.786 405.411 351.786 404.696C351.786 403.747 351.946 402.947 352.266 402.296C352.586 401.635 353.045 401.133 353.642 400.792C354.24 400.44 354.949 400.264 355.77 400.264C356.549 400.264 357.232 400.44 357.818 400.792C358.416 401.133 358.88 401.635 359.21 402.296C359.552 402.947 359.722 403.747 359.722 404.696ZM353.242 404.696C353.242 405.368 353.328 405.955 353.498 406.456C353.68 406.947 353.957 407.325 354.33 407.592C354.704 407.859 355.178 407.992 355.754 407.992C356.33 407.992 356.805 407.859 357.178 407.592C357.552 407.325 357.824 406.947 357.994 406.456C358.176 405.955 358.266 405.368 358.266 404.696C358.266 404.013 358.176 403.432 357.994 402.952C357.813 402.472 357.536 402.104 357.162 401.848C356.8 401.581 356.325 401.448 355.738 401.448C354.864 401.448 354.229 401.736 353.834 402.312C353.44 402.888 353.242 403.683 353.242 404.696ZM361.506 403.848C361.506 402.6 361.628 401.539 361.874 400.664C362.13 399.779 362.519 399.075 363.042 398.552C363.575 398.019 364.258 397.661 365.09 397.48C365.783 397.331 366.46 397.197 367.122 397.08C367.783 396.963 368.402 396.856 368.978 396.76L369.218 397.992C368.94 398.035 368.631 398.088 368.29 398.152C367.948 398.205 367.602 398.264 367.25 398.328C366.898 398.381 366.556 398.44 366.226 398.504C365.906 398.557 365.623 398.611 365.378 398.664C365.026 398.739 364.711 398.867 364.434 399.048C364.156 399.219 363.916 399.453 363.714 399.752C363.522 400.051 363.367 400.419 363.25 400.856C363.132 401.293 363.063 401.811 363.042 402.408H363.138C363.287 402.205 363.49 401.997 363.746 401.784C364.012 401.571 364.327 401.389 364.69 401.24C365.063 401.091 365.484 401.016 365.954 401.016C366.7 401.016 367.319 401.181 367.81 401.512C368.311 401.832 368.684 402.28 368.93 402.856C369.186 403.432 369.314 404.104 369.314 404.872C369.314 405.821 369.148 406.616 368.818 407.256C368.487 407.896 368.028 408.376 367.442 408.696C366.855 409.005 366.172 409.16 365.394 409.16C364.807 409.16 364.274 409.048 363.794 408.824C363.314 408.589 362.903 408.248 362.562 407.8C362.22 407.352 361.959 406.797 361.778 406.136C361.596 405.475 361.506 404.712 361.506 403.848ZM365.506 407.992C365.975 407.992 366.38 407.896 366.722 407.704C367.074 407.512 367.346 407.197 367.538 406.76C367.73 406.323 367.826 405.741 367.826 405.016C367.826 404.141 367.66 403.453 367.33 402.952C367.01 402.44 366.476 402.184 365.73 402.184C365.26 402.184 364.834 402.291 364.45 402.504C364.066 402.707 363.746 402.941 363.49 403.208C363.234 403.475 363.052 403.699 362.946 403.88C362.946 404.403 362.983 404.909 363.058 405.4C363.132 405.891 363.26 406.333 363.442 406.728C363.634 407.112 363.895 407.421 364.226 407.656C364.567 407.88 364.994 407.992 365.506 407.992ZM375.612 400.264C376.668 400.264 377.516 400.632 378.156 401.368C378.807 402.104 379.132 403.213 379.132 404.696C379.132 405.667 378.983 406.488 378.684 407.16C378.396 407.821 377.985 408.323 377.452 408.664C376.929 408.995 376.311 409.16 375.596 409.16C375.159 409.16 374.769 409.101 374.428 408.984C374.087 408.867 373.793 408.717 373.548 408.536C373.313 408.344 373.111 408.136 372.94 407.912H372.844C372.865 408.093 372.887 408.323 372.908 408.6C372.929 408.877 372.94 409.117 372.94 409.32V412.84H371.532V400.424H372.684L372.876 401.592H372.94C373.111 401.347 373.313 401.123 373.548 400.92C373.793 400.717 374.081 400.557 374.412 400.44C374.753 400.323 375.153 400.264 375.612 400.264ZM375.356 401.448C374.78 401.448 374.316 401.56 373.964 401.784C373.612 401.997 373.356 402.323 373.196 402.76C373.036 403.197 372.951 403.752 372.94 404.424V404.696C372.94 405.4 373.015 405.997 373.164 406.488C373.313 406.979 373.564 407.352 373.916 407.608C374.279 407.864 374.769 407.992 375.388 407.992C375.911 407.992 376.337 407.848 376.668 407.56C377.009 407.272 377.26 406.883 377.42 406.392C377.591 405.891 377.676 405.32 377.676 404.68C377.676 403.699 377.484 402.915 377.1 402.328C376.727 401.741 376.145 401.448 375.356 401.448ZM384.624 400.28C385.669 400.28 386.442 400.509 386.944 400.968C387.445 401.427 387.696 402.157 387.696 403.16V409H386.672L386.4 407.784H386.336C386.09 408.093 385.834 408.355 385.568 408.568C385.312 408.771 385.013 408.92 384.672 409.016C384.341 409.112 383.936 409.16 383.456 409.16C382.944 409.16 382.48 409.069 382.064 408.888C381.658 408.707 381.338 408.429 381.104 408.056C380.869 407.672 380.752 407.192 380.752 406.616C380.752 405.763 381.088 405.107 381.76 404.648C382.432 404.179 383.466 403.923 384.864 403.88L386.32 403.832V403.32C386.32 402.605 386.165 402.109 385.856 401.832C385.546 401.555 385.109 401.416 384.544 401.416C384.096 401.416 383.669 401.485 383.264 401.624C382.858 401.752 382.48 401.901 382.128 402.072L381.696 401.016C382.069 400.813 382.512 400.643 383.024 400.504C383.536 400.355 384.069 400.28 384.624 400.28ZM385.04 404.856C383.973 404.899 383.232 405.069 382.816 405.368C382.41 405.667 382.208 406.088 382.208 406.632C382.208 407.112 382.352 407.464 382.64 407.688C382.938 407.912 383.317 408.024 383.776 408.024C384.501 408.024 385.104 407.827 385.584 407.432C386.064 407.027 386.304 406.408 386.304 405.576V404.808L385.04 404.856ZM392.6 400.264C393.251 400.264 393.816 400.355 394.296 400.536C394.776 400.707 395.15 400.963 395.416 401.304C395.683 401.635 395.816 402.04 395.816 402.52C395.816 403.043 395.672 403.459 395.384 403.768C395.096 404.067 394.702 404.285 394.2 404.424V404.488C394.542 404.584 394.856 404.717 395.144 404.888C395.432 405.059 395.662 405.283 395.832 405.56C396.014 405.837 396.104 406.195 396.104 406.632C396.104 407.101 395.971 407.528 395.704 407.912C395.448 408.296 395.048 408.6 394.504 408.824C393.971 409.048 393.283 409.16 392.44 409.16C392.035 409.16 391.646 409.139 391.272 409.096C390.91 409.053 390.579 408.989 390.28 408.904C389.992 408.819 389.736 408.717 389.512 408.6V407.336C389.875 407.507 390.302 407.661 390.792 407.8C391.294 407.939 391.838 408.008 392.424 408.008C392.851 408.008 393.235 407.96 393.576 407.864C393.928 407.768 394.206 407.619 394.408 407.416C394.611 407.203 394.712 406.915 394.712 406.552C394.712 406.221 394.622 405.955 394.44 405.752C394.259 405.539 393.987 405.379 393.624 405.272C393.272 405.165 392.819 405.112 392.264 405.112H391.112V403.96H392.04C392.776 403.96 393.363 403.864 393.8 403.672C394.248 403.469 394.472 403.128 394.472 402.648C394.472 402.243 394.302 401.939 393.96 401.736C393.63 401.533 393.15 401.432 392.52 401.432C392.051 401.432 391.635 401.48 391.272 401.576C390.92 401.661 390.531 401.795 390.104 401.976L389.608 400.856C390.067 400.653 390.547 400.504 391.048 400.408C391.55 400.312 392.067 400.264 392.6 400.264ZM399.516 405.656C399.516 405.752 399.511 405.891 399.5 406.072C399.5 406.243 399.495 406.429 399.484 406.632C399.473 406.824 399.463 407.011 399.452 407.192C399.441 407.363 399.431 407.501 399.42 407.608L404.012 400.424H405.74V409H404.428V403.944C404.428 403.773 404.428 403.549 404.428 403.272C404.439 402.995 404.449 402.723 404.46 402.456C404.471 402.179 404.481 401.971 404.492 401.832L399.932 409H398.188V400.424H399.516V405.656ZM414.389 401.608H411.589V409H410.197V401.608H407.429V400.424H414.389V401.608ZM419.363 409.16C418.605 409.16 417.928 409.005 417.331 408.696C416.744 408.387 416.28 407.907 415.939 407.256C415.608 406.605 415.443 405.773 415.443 404.76C415.443 403.704 415.619 402.845 415.971 402.184C416.323 401.523 416.797 401.037 417.395 400.728C418.003 400.419 418.691 400.264 419.459 400.264C419.896 400.264 420.317 400.312 420.723 400.408C421.128 400.493 421.459 400.6 421.715 400.728L421.283 401.896C421.027 401.8 420.728 401.709 420.387 401.624C420.045 401.539 419.725 401.496 419.427 401.496C418.851 401.496 418.376 401.619 418.003 401.864C417.629 402.109 417.352 402.472 417.171 402.952C416.989 403.432 416.899 404.029 416.899 404.744C416.899 405.427 416.989 406.008 417.171 406.488C417.352 406.968 417.624 407.331 417.987 407.576C418.349 407.821 418.803 407.944 419.347 407.944C419.816 407.944 420.227 407.896 420.579 407.8C420.941 407.704 421.272 407.587 421.571 407.448V408.696C421.283 408.845 420.963 408.957 420.611 409.032C420.269 409.117 419.853 409.16 419.363 409.16ZM424.138 409H422.506L424.954 405.4C424.623 405.315 424.303 405.181 423.994 405C423.685 404.808 423.434 404.547 423.242 404.216C423.05 403.875 422.954 403.453 422.954 402.952C422.954 402.131 423.231 401.507 423.786 401.08C424.341 400.643 425.077 400.424 425.994 400.424H429.834V409H428.426V405.592H426.346L424.138 409ZM424.314 402.968C424.314 403.459 424.495 403.827 424.858 404.072C425.231 404.307 425.749 404.424 426.41 404.424H428.426V401.592H426.138C425.487 401.592 425.018 401.72 424.73 401.976C424.453 402.232 424.314 402.563 424.314 402.968ZM436.674 400.424V403.992H441.33V400.424H442.738V409H441.33V405.176H436.674V409H435.266V400.424H436.674ZM448.702 400.28C449.747 400.28 450.52 400.509 451.022 400.968C451.523 401.427 451.774 402.157 451.774 403.16V409H450.75L450.478 407.784H450.414C450.168 408.093 449.912 408.355 449.646 408.568C449.39 408.771 449.091 408.92 448.75 409.016C448.419 409.112 448.014 409.16 447.534 409.16C447.022 409.16 446.558 409.069 446.142 408.888C445.736 408.707 445.416 408.429 445.182 408.056C444.947 407.672 444.83 407.192 444.83 406.616C444.83 405.763 445.166 405.107 445.838 404.648C446.51 404.179 447.544 403.923 448.942 403.88L450.398 403.832V403.32C450.398 402.605 450.243 402.109 449.934 401.832C449.624 401.555 449.187 401.416 448.622 401.416C448.174 401.416 447.747 401.485 447.342 401.624C446.936 401.752 446.558 401.901 446.206 402.072L445.774 401.016C446.147 400.813 446.59 400.643 447.102 400.504C447.614 400.355 448.147 400.28 448.702 400.28ZM449.118 404.856C448.051 404.899 447.31 405.069 446.894 405.368C446.488 405.667 446.286 406.088 446.286 406.632C446.286 407.112 446.43 407.464 446.718 407.688C447.016 407.912 447.395 408.024 447.854 408.024C448.579 408.024 449.182 407.827 449.662 407.432C450.142 407.027 450.382 406.408 450.382 405.576V404.808L449.118 404.856ZM458.517 409.16C458.027 409.16 457.6 409.117 457.237 409.032C456.885 408.957 456.555 408.845 456.245 408.696V407.48C456.565 407.608 456.912 407.72 457.285 407.816C457.659 407.912 458.08 407.96 458.549 407.96C459.104 407.96 459.584 407.864 459.989 407.672C460.395 407.469 460.715 407.16 460.949 406.744C461.184 406.328 461.317 405.8 461.349 405.16H457.125V404.008H461.333C461.259 403.133 461.008 402.493 460.581 402.088C460.165 401.683 459.552 401.48 458.741 401.48C458.432 401.48 458.091 401.523 457.717 401.608C457.355 401.693 457.029 401.789 456.741 401.896L456.341 400.76C456.651 400.621 457.019 400.504 457.445 400.408C457.872 400.312 458.299 400.264 458.725 400.264C459.525 400.264 460.229 400.413 460.837 400.712C461.456 401.011 461.936 401.485 462.277 402.136C462.629 402.787 462.805 403.645 462.805 404.712C462.805 405.725 462.619 406.563 462.245 407.224C461.883 407.885 461.376 408.376 460.725 408.696C460.085 409.005 459.349 409.16 458.517 409.16ZM470.811 401.608H468.011V409H466.619V401.608H463.851V400.424H470.811V401.608ZM479.8 404.696C479.8 405.411 479.704 406.045 479.512 406.6C479.331 407.144 479.064 407.608 478.712 407.992C478.371 408.376 477.95 408.669 477.448 408.872C476.958 409.064 476.408 409.16 475.8 409.16C475.235 409.16 474.712 409.064 474.232 408.872C473.752 408.669 473.336 408.376 472.984 407.992C472.632 407.608 472.355 407.144 472.152 406.6C471.96 406.045 471.864 405.411 471.864 404.696C471.864 403.747 472.024 402.947 472.344 402.296C472.664 401.635 473.123 401.133 473.72 400.792C474.318 400.44 475.027 400.264 475.848 400.264C476.627 400.264 477.31 400.44 477.896 400.792C478.494 401.133 478.958 401.635 479.288 402.296C479.63 402.947 479.8 403.747 479.8 404.696ZM473.32 404.696C473.32 405.368 473.406 405.955 473.576 406.456C473.758 406.947 474.035 407.325 474.408 407.592C474.782 407.859 475.256 407.992 475.832 407.992C476.408 407.992 476.883 407.859 477.256 407.592C477.63 407.325 477.902 406.947 478.072 406.456C478.254 405.955 478.344 405.368 478.344 404.696C478.344 404.013 478.254 403.432 478.072 402.952C477.891 402.472 477.614 402.104 477.24 401.848C476.878 401.581 476.403 401.448 475.816 401.448C474.942 401.448 474.307 401.736 473.912 402.312C473.518 402.888 473.32 403.683 473.32 404.696ZM488.976 396.872C488.933 397.405 488.8 397.853 488.576 398.216C488.363 398.579 488.043 398.851 487.616 399.032C487.189 399.213 486.635 399.304 485.952 399.304C485.259 399.304 484.699 399.213 484.272 399.032C483.856 398.851 483.552 398.584 483.36 398.232C483.168 397.869 483.051 397.416 483.008 396.872H484.32C484.373 397.448 484.523 397.837 484.768 398.04C485.024 398.232 485.429 398.328 485.984 398.328C486.475 398.328 486.859 398.227 487.136 398.024C487.424 397.811 487.595 397.427 487.648 396.872H488.976ZM483.36 405.656C483.36 405.752 483.355 405.891 483.344 406.072C483.344 406.243 483.339 406.429 483.328 406.632C483.317 406.824 483.307 407.011 483.296 407.192C483.285 407.363 483.275 407.501 483.264 407.608L487.856 400.424H489.584V409H488.272V403.944C488.272 403.773 488.272 403.549 488.272 403.272C488.283 402.995 488.293 402.723 488.304 402.456C488.315 402.179 488.325 401.971 488.336 401.832L483.776 409H482.032V400.424H483.36V405.656ZM498.472 409.16C497.715 409.16 497.037 409.005 496.44 408.696C495.853 408.387 495.389 407.907 495.048 407.256C494.717 406.605 494.552 405.773 494.552 404.76C494.552 403.704 494.728 402.845 495.08 402.184C495.432 401.523 495.907 401.037 496.504 400.728C497.112 400.419 497.8 400.264 498.568 400.264C499.005 400.264 499.427 400.312 499.832 400.408C500.237 400.493 500.568 400.6 500.824 400.728L500.392 401.896C500.136 401.8 499.837 401.709 499.496 401.624C499.155 401.539 498.835 401.496 498.536 401.496C497.96 401.496 497.485 401.619 497.112 401.864C496.739 402.109 496.461 402.472 496.28 402.952C496.099 403.432 496.008 404.029 496.008 404.744C496.008 405.427 496.099 406.008 496.28 406.488C496.461 406.968 496.733 407.331 497.096 407.576C497.459 407.821 497.912 407.944 498.456 407.944C498.925 407.944 499.336 407.896 499.688 407.8C500.051 407.704 500.381 407.587 500.68 407.448V408.696C500.392 408.845 500.072 408.957 499.72 409.032C499.379 409.117 498.963 409.16 498.472 409.16ZM508.639 401.608H505.839V409H504.447V401.608H501.679V400.424H508.639V401.608ZM514.409 400.264C515.465 400.264 516.313 400.632 516.953 401.368C517.603 402.104 517.929 403.213 517.929 404.696C517.929 405.667 517.779 406.488 517.481 407.16C517.193 407.821 516.782 408.323 516.249 408.664C515.726 408.995 515.107 409.16 514.393 409.16C513.955 409.16 513.566 409.101 513.225 408.984C512.883 408.867 512.59 408.717 512.345 408.536C512.11 408.344 511.907 408.136 511.737 407.912H511.641C511.662 408.093 511.683 408.323 511.705 408.6C511.726 408.877 511.737 409.117 511.737 409.32V412.84H510.329V400.424H511.481L511.673 401.592H511.737C511.907 401.347 512.11 401.123 512.345 400.92C512.59 400.717 512.878 400.557 513.209 400.44C513.55 400.323 513.95 400.264 514.409 400.264ZM514.153 401.448C513.577 401.448 513.113 401.56 512.761 401.784C512.409 401.997 512.153 402.323 511.993 402.76C511.833 403.197 511.747 403.752 511.737 404.424V404.696C511.737 405.4 511.811 405.997 511.961 406.488C512.11 406.979 512.361 407.352 512.713 407.608C513.075 407.864 513.566 407.992 514.185 407.992C514.707 407.992 515.134 407.848 515.465 407.56C515.806 407.272 516.057 406.883 516.217 406.392C516.387 405.891 516.473 405.32 516.473 404.68C516.473 403.699 516.281 402.915 515.897 402.328C515.523 401.741 514.942 401.448 514.153 401.448ZM523.421 400.28C524.466 400.28 525.239 400.509 525.741 400.968C526.242 401.427 526.493 402.157 526.493 403.16V409H525.469L525.197 407.784H525.133C524.887 408.093 524.631 408.355 524.365 408.568C524.109 408.771 523.81 408.92 523.469 409.016C523.138 409.112 522.733 409.16 522.253 409.16C521.741 409.16 521.277 409.069 520.861 408.888C520.455 408.707 520.135 408.429 519.901 408.056C519.666 407.672 519.549 407.192 519.549 406.616C519.549 405.763 519.885 405.107 520.557 404.648C521.229 404.179 522.263 403.923 523.661 403.88L525.117 403.832V403.32C525.117 402.605 524.962 402.109 524.653 401.832C524.343 401.555 523.906 401.416 523.341 401.416C522.893 401.416 522.466 401.485 522.061 401.624C521.655 401.752 521.277 401.901 520.924 402.072L520.493 401.016C520.866 400.813 521.309 400.643 521.821 400.504C522.333 400.355 522.866 400.28 523.421 400.28ZM523.837 404.856C522.77 404.899 522.029 405.069 521.613 405.368C521.207 405.667 521.005 406.088 521.005 406.632C521.005 407.112 521.149 407.464 521.437 407.688C521.735 407.912 522.114 408.024 522.573 408.024C523.298 408.024 523.901 407.827 524.381 407.432C524.861 407.027 525.101 406.408 525.101 405.576V404.808L523.837 404.856ZM530.549 400.424V403.992H535.205V400.424H536.613V409H535.205V405.176H530.549V409H529.141V400.424H530.549ZM540.657 405.656C540.657 405.752 540.651 405.891 540.641 406.072C540.641 406.243 540.635 406.429 540.625 406.632C540.614 406.824 540.603 407.011 540.593 407.192C540.582 407.363 540.571 407.501 540.561 407.608L545.153 400.424H546.881V409H545.569V403.944C545.569 403.773 545.569 403.549 545.569 403.272C545.579 402.995 545.59 402.723 545.601 402.456C545.611 402.179 545.622 401.971 545.633 401.832L541.073 409H539.329V400.424H540.657V405.656ZM558.074 411.976H556.698V409H549.61V400.424H551.018V407.816H555.45V400.424H556.858V407.832H558.074V411.976ZM563.031 400.264C563.767 400.264 564.397 400.424 564.919 400.744C565.453 401.064 565.858 401.517 566.135 402.104C566.423 402.68 566.567 403.357 566.567 404.136V404.984H560.695C560.717 405.955 560.962 406.696 561.431 407.208C561.911 407.709 562.578 407.96 563.431 407.96C563.975 407.96 564.455 407.912 564.871 407.816C565.298 407.709 565.735 407.56 566.183 407.368V408.6C565.746 408.792 565.314 408.931 564.887 409.016C564.461 409.112 563.954 409.16 563.367 409.16C562.557 409.16 561.837 408.995 561.207 408.664C560.589 408.333 560.103 407.843 559.751 407.192C559.41 406.531 559.239 405.725 559.239 404.776C559.239 403.837 559.394 403.032 559.703 402.36C560.023 401.688 560.466 401.171 561.031 400.808C561.607 400.445 562.274 400.264 563.031 400.264ZM563.015 401.416C562.343 401.416 561.81 401.635 561.415 402.072C561.031 402.499 560.802 403.096 560.727 403.864H565.095C565.095 403.373 565.021 402.947 564.871 402.584C564.722 402.221 564.493 401.939 564.183 401.736C563.885 401.523 563.495 401.416 563.015 401.416ZM569.087 405.576L569.007 397.08H570.287L570.207 405.576H569.087ZM569.007 409V407.24H570.287V409H569.007Z" fill="#333333"/>
</svg>
