<svg width="318" height="214" viewBox="0 0 318 214" fill="none" xmlns="http://www.w3.org/2000/svg">
<path d="M312 1L289 18L316 27L312 1Z" fill="black" stroke="black"/>
<path d="M303.896 12C303.896 12 299.796 12.9541 295.396 31.5C288.396 61 315.438 71 316.938 87.5C318.438 104 312.85 136.444 279.438 141.5C246.396 146.5 212.772 123.5 177.939 118C143.939 105.5 165.738 81.6 184.938 80C204.138 78.4 217.439 103 214.938 123.5C212.01 147.508 179.996 152.9 136.396 146.5C92.7955 140.1 0.895508 165 0.895508 213.5" stroke="black" stroke-linecap="round" stroke-dasharray="16 16"/>
</svg>
